<?xml version="1.0" encoding="utf-8"?>
<!-- Generator: Adobe Illustrator 15.0.0, SVG Export Plug-In . SVG Version: 6.00 Build 0)  -->
<!DOCTYPE svg PUBLIC "-//W3C//DTD SVG 1.1//EN" "http://www.w3.org/Graphics/SVG/1.1/DTD/svg11.dtd">
<svg version="1.1" id="Layer_1" xmlns="http://www.w3.org/2000/svg" xmlns:xlink="http://www.w3.org/1999/xlink" x="0px" y="0px"
	 width="58.461px" height="76px" viewBox="0 0 58.461 76" enable-background="new 0 0 58.461 76" xml:space="preserve">
<g opacity="0.5">
	<path fill="#FFFFFF" d="M21.134,11.127c0.491-0.551,0.74-1.269,0.74-2.127c0-0.885-0.246-1.651-0.73-2.275
		c-0.53-0.671-1.215-1.011-2.042-1.011c-0.841,0-1.524,0.282-2.034,0.841C16.559,7.114,16.3,7.843,16.3,8.717
		c0,0.847,0.259,1.597,0.768,2.227c0.54,0.682,1.235,1.027,2.058,1.027C19.948,11.97,20.625,11.684,21.134,11.127z"/>
	<path fill="#FFFFFF" d="M48.563,6.257c-0.135,0.346-0.946,2.398-1.025,2.603c0.214,0,1.816,0,2.03,0
		C49.489,8.659,48.694,6.605,48.563,6.257z"/>
	<path fill="#FFFFFF" d="M56.775,41.664V1.08h-0.969H1v40.609c-0.006,0.59-0.04,14.856,10.119,23.317l-0.022-0.019
		c0.319,0.28,7.918,6.943,17.36,11.013l0.887-0.014c9.092-4.215,17.376-10.906,17.464-10.975
		C56.978,56.543,56.787,42.272,56.775,41.664z M2.932,20.861h51.807v0.394H2.932V20.861z M7.571,19.399h0.097
		c0.857,0,1.016-0.377,1.016-1.071l-0.003-2.33h0.456h0.039l0.002,2.33c0,0.284-0.01,0.477-0.035,0.591
		c-0.039,0.214-0.127,0.397-0.261,0.547c-0.246,0.268-0.601,0.408-1.049,0.408H7.409c-0.45,0-0.802-0.14-1.047-0.408
		c-0.138-0.15-0.226-0.333-0.265-0.547c-0.022-0.115-0.035-0.308-0.035-0.591l0.002-2.33h0.657c0,0-0.004,2.327-0.004,2.33
		C6.716,19.036,7.005,19.399,7.571,19.399z M12.067,19.782v-3.784h0.568c0,0,2.044,2.597,2.184,2.775
		c0-0.221,0.004-2.733,0.004-2.733l0.002-0.042h0.453h0.045v3.784L14.78,19.78c0,0-2.076-2.647-2.215-2.827
		c0,0.224-0.002,2.829-0.002,2.829H12.067z M18.109,19.782v-3.784h0.612h0.041l-0.002,3.784H18.109z M20.911,15.998h0.743
		c0,0,0.991,2.763,1.063,2.966c0.073-0.203,1.083-2.966,1.083-2.966h0.514h0.058l-1.458,3.784l-0.592,0.001L20.911,15.998z
		 M28.386,17.48v0.492c0,0-1.136,0-1.214,0c0,0.075,0,1.195,0,1.27c0.082,0,1.772-0.003,1.772-0.003l-0.014,0.535h-2.413
		l-0.003-3.736v-0.041l2.192,0.001v0.508h-0.039c-0.015,0-1.231-0.006-1.496,0c0,0.071,0,0.9,0,0.975
		C27.25,17.48,28.386,17.48,28.386,17.48z M33.841,18.918c0.244,0.312,0.537,0.594,0.804,0.775l0.115,0.079h-0.546
		c-0.295,0-0.523-0.102-0.677-0.297l-1.322-1.696l0.069-0.007c0.627-0.095,0.933-0.343,0.936-0.762c0-0.179-0.063-0.313-0.193-0.404
		c-0.096-0.07-0.341-0.148-0.955-0.14c0,0.083,0,2.479,0,2.479c0,0.457,0,0.64,0.016,0.766v0.061h-0.668v-3.776h0.041h1.209
		c0.374,0,0.673,0.09,0.888,0.267c0.21,0.173,0.314,0.4,0.314,0.676c0,0.246-0.095,0.475-0.284,0.669
		c-0.171,0.181-0.397,0.282-0.529,0.329C33.217,18.137,33.841,18.918,33.841,18.918z M37.879,18.246l-0.756-0.369
		c0,0-0.182-0.091-0.184-0.095c-0.349-0.221-0.525-0.513-0.525-0.863c0-0.343,0.162-0.608,0.474-0.789
		c0.262-0.151,0.589-0.228,0.98-0.228c0.3,0,0.587,0.04,0.852,0.124l0.028,0.008v0.673l-0.065-0.053
		c-0.176-0.138-0.515-0.236-0.847-0.246c-0.202-0.009-0.363,0.026-0.479,0.092c-0.152,0.083-0.224,0.199-0.224,0.361
		c0,0.19,0.161,0.374,0.479,0.542l0.436,0.212c0,0,0.504,0.244,0.507,0.247c0.347,0.224,0.523,0.487,0.523,0.795
		c0,0.35-0.136,0.64-0.407,0.856c-0.284,0.226-0.682,0.347-1.14,0.347c-0.372,0-0.719-0.058-1.021-0.174l-0.024-0.006l-0.099-0.662
		l0.075,0.045c0.347,0.199,0.726,0.299,1.134,0.304c0.176,0.001,0.346-0.045,0.5-0.138c0.179-0.107,0.26-0.239,0.26-0.404
		C38.356,18.608,38.194,18.411,37.879,18.246z M41.748,18.951v-2.116v-0.837h0.615h0.041v0.042v0.795v2.116v0.831h-0.65
		L41.748,18.951z M44.88,16.48l0.001-0.454v-0.039h2.783v0.497c0,0-0.996,0-1.075,0c0,0.08-0.003,3.288-0.003,3.288h-0.65
		c0,0,0-3.208,0-3.288C45.856,16.48,44.88,16.48,44.88,16.48z M49.131,15.987h0.728h0.023c0,0,0.949,1.493,1.015,1.595
		c0.064-0.102,1.028-1.592,1.028-1.592h0.636c0,0-1.404,2.113-1.418,2.136c0,0.023-0.003,1.646-0.003,1.646h-0.655
		c0,0,0.008-1.625,0.008-1.648C50.477,18.103,49.131,15.987,49.131,15.987z M54.831,41.689c0,0.006,0,0.035,0,0.086
		c0,1.194-0.211,14.206-9.258,21.735c-0.071,0.063-7.966,6.43-16.693,10.55c-8.995-3.953-16.424-10.462-16.5-10.529l-0.021-0.021
		c-9.312-7.749-9.42-21.305-9.42-21.803c0-0.004,0-9.015,0-18.344h51.892C54.831,32.687,54.831,41.689,54.831,41.689z
		 M54.854,14.634H3.049V14.24h51.805V14.634z M10.426,4.912h1.155h0.202l-0.159,0.171c0,0-2.692,3.286-2.784,3.405
		c0.363,0.401,2.757,3.051,2.757,3.051c0.568,0.596,0.832,0.792,1.108,1.004c0,0,0.107,0.081,0.103,0.079l0.271,0.193h-1.129
		c-0.659,0-1.13-0.181-1.39-0.533L7.402,8.768v4.048H6.031V4.912h1.281h0.09v3.743L10.426,4.912z M14.839,8.823
		c0-1.144,0.425-2.132,1.264-2.937c0.84-0.807,1.875-1.213,3.081-1.205c1.185,0.009,2.191,0.427,2.991,1.242
		c0.771,0.782,1.161,1.737,1.161,2.841c0,1.203-0.424,2.223-1.253,3.026c-0.831,0.802-1.843,1.208-3.013,1.208
		c-1.17,0-2.17-0.388-2.979-1.168C15.259,11.041,14.839,10.027,14.839,8.823z M32.151,11.024c0.508,0.651,1.126,1.246,1.687,1.631
		l0.235,0.161H32.94c-0.62,0-1.102-0.206-1.432-0.623l-2.776-3.556l0.149-0.02c1.313-0.198,1.955-0.722,1.96-1.594
		c0.002-0.381-0.128-0.66-0.4-0.852c-0.203-0.141-0.713-0.306-2.006-0.291c0,0.167,0,5.198,0,5.198c0,0.939,0.002,1.348,0.038,1.614
		v0.122h-1.412V4.894h0.088h2.543c0.786,0,1.413,0.19,1.866,0.564c0.435,0.359,0.656,0.839,0.656,1.418
		c0,0.515-0.202,0.988-0.599,1.402c-0.363,0.381-0.84,0.592-1.112,0.692C30.837,9.385,32.151,11.024,32.151,11.024z M40.837,8.004
		V9.04c0,0-2.38-0.002-2.542-0.002c0,0.157,0,2.509,0,2.668c0.165,0,3.714-0.003,3.714-0.003l-0.013,1.114h-5.075L36.915,4.98V4.892
		l4.604,0.002v1.063h-0.086c-0.029,0-2.584-0.013-3.138,0c0,0.155,0,1.896,0,2.048C38.457,8.004,40.837,8.004,40.837,8.004z
		 M44.844,12.816l3.229-7.925h1.27h0.057l3.234,7.925h-1.519c0,0-1.067-2.799-1.106-2.908c-0.117,0-2.742,0-2.857,0
		c-0.035,0.109-1.085,2.908-1.085,2.908H44.844z M54.854,3.546H3.049V3.149h51.805V3.546z"/>
</g>
<g opacity="0.5">
	<path fill="#FFFFFF" d="M24.521,67.564h0.712c0.1,0,0.063-0.085,0.063-0.085c-0.291-1.286-0.141-2.288-0.084-2.585
		c0,0,0.027-0.089-0.073-0.089h-0.704c-0.097,0-0.061,0.073-0.061,0.073c0.238,0.984,0.146,2.232,0.084,2.594
		C24.459,67.473,24.415,67.564,24.521,67.564L24.521,67.564z"/>
	<path fill="#FFFFFF" d="M27.161,64.727c-1.135,0.11-1.064,1.438-1.064,1.438c0.07,1.204,1.317,1.434,1.317,1.434
		c-0.341,0.921-1.253,1.197-1.253,1.197c-0.215,0.084-0.058,0.145-0.058,0.145c0.273,0.092,0.671-0.071,0.671-0.071
		c1.666-0.745,1.707-2.489,1.707-2.489C28.519,64.597,27.161,64.727,27.161,64.727 M27.567,67.172
		c-0.543,0.021-0.675-0.825-0.675-0.825c-0.139-0.929,0.224-0.982,0.224-0.982c0.38-0.118,0.547,0.668,0.547,0.668
		C27.848,66.947,27.567,67.172,27.567,67.172L27.567,67.172z"/>
	<path fill="#FFFFFF" d="M31.365,65.806c0,0-0.149-1.104-1.186-1.094c0,0-1.022-0.027-1.071,1.392c0,0-0.037,1.498,1.256,1.437
		C30.364,67.54,31.631,67.459,31.365,65.806 M30.381,67.064c-0.49,0.175-0.544-0.82-0.544-0.82
		c-0.051-0.958,0.338-1.053,0.338-1.053c0.393-0.098,0.504,0.605,0.504,0.605C30.857,66.885,30.381,67.064,30.381,67.064
		L30.381,67.064z"/>
	<path fill="#FFFFFF" d="M31.672,67.92c1.092,0.215,1.38-0.56,1.38-0.56c0.35-1.1-1.022-1.146-1.022-1.146l0.219-1.42
		c0,0,1.377,0.065,1.747-0.116c0,0,0.087-0.061,0.039,0.148c0,0-0.077,0.469-0.526,0.506l-0.677,0.058l-0.063,0.396
		c0,0,1.172-0.024,1.147,1.24c0,0-0.043,0.978-1.187,1.216c0,0-0.534,0.121-1.153-0.131c0,0-0.095-0.046-0.042-0.121
		C31.533,67.989,31.575,67.9,31.672,67.92L31.672,67.92z"/>
	<path fill="#FFFFFF" d="M27.637,41.424c0.087-0.108,0.199-0.031,0.292,0c0.088,0.024,0.092,0.197,0.142,0.284
		c0.027,0.064,0.198,0.236,0.214,0.29c0.139,0.634,0,1.466-0.288,1.953c-0.079,0.147-0.21,0.228-0.302,0.229
		c-0.122,0.012-0.16-0.165-0.203-0.229c-0.183-0.256-0.044-0.864,0-1.151c0.048-0.365-0.237-0.956-0.055-1.222
		C27.437,41.578,27.633,41.424,27.637,41.424L27.637,41.424z"/>
	<path fill="#FFFFFF" d="M18.982,42.093c0.154-0.042,0.377,0.031,0.472,0l0.208-0.081c0.239-0.158,0.479-0.115,0.721-0.086
		c0.124,0.012,0.484,0.167,0.604,0.174c0.191,0.021,1.104,0.117,2.07,0.256c-0.009-0.003,0.518-0.067,0.385-0.214
		c0.083,0.096-0.015-0.076-0.213-0.145l-0.067-0.072c0.008-0.007-0.168-0.148,0.146-0.254c-0.12,0.036,0.203-0.044,0.268-0.116
		c0.126-0.132-0.06-0.276-0.06-0.276c-0.458-0.157-0.971,0.139-1.659,0.067c-0.34-0.031-0.819-0.224-1.295-0.144
		c-0.521,0.091-1.286,0.387-1.65,0.669C18.91,41.872,18.738,42.173,18.982,42.093L18.982,42.093z"/>
	<path fill="#FFFFFF" d="M24.773,38.343c0.467-0.025,0.489,0.457,0.5,0.409c-0.055,0.346-0.904,0.375-1.106,0.648
		c-0.593,0.771-0.347,1.511-1.751,1.591c0,0-0.281-0.067-0.171-0.182c0.087-0.092,0.429-0.183,0.552-0.258
		c0.182-0.107,0.166-0.399,0.287-0.579c0.025-0.044,0.183-0.097,0.223-0.138c0.394-0.529,0.438-1.072,1.133-1.389
		C24.468,38.426,24.723,38.355,24.773,38.343L24.773,38.343z"/>
	<path fill="#FFFFFF" d="M29.268,36.263c0.161-0.092,0.319,0,0.425,0.094c0.06,0.042,0.574,1.276,0.598,1.397
		c0.067,0.446,0.118,1.479-0.005,1.814c-0.173,0.459-0.601,0.815-0.507,1.634c0.05,0.483,0.261,0.856,0.464,1.271
		c0.024,0.071,0.236,0.481,0.247,0.565c0.078,0.438-0.163,1.01-0.199,1.369c-0.107,0.886,0.248,1.693,0.106,2.54
		c-0.06,0.367-0.178,0.55-0.378,0.775l-0.16,0.138c-0.045,0.087-0.123,0.117-0.202,0.178l-0.1,0.101
		c-0.151,0.035-0.164,0.123-0.227,0.126c-0.38,0.088-0.457-0.135-0.434-0.083c-0.386-1.088,0.261-2.356-0.07-3.407
		c-0.077-0.238-0.36-0.479-0.398-0.737c-0.131-0.938,0.749-1.437,0.736-2.067c0-0.451-0.593-1.038-0.727-1.481
		c-0.169-0.521-0.28-1.517-0.05-2.167c0.053-0.156,0.255-0.424,0.313-0.635c0.107-0.408,0.274-0.741,0.332-1.011
		c0.021-0.082,0.071-0.2,0.117-0.28C29.164,36.373,29.242,36.278,29.268,36.263L29.268,36.263z"/>
	<path fill="#FFFFFF" d="M40.489,34.018c0.636-0.072,0.92,0.175,0.624,0.719l-0.124,0.117c-0.053,0.02-0.222,0.24-0.257,0.27
		c-0.307,0.227-0.598,0.365-0.827,0.655c-0.085,0.095-0.149,0.338-0.249,0.424c-0.157,0.114-0.767,0.381-0.923,0.408
		c-0.768,0.125-1.813-0.642-1.924-1.087c-0.102-0.379,0-0.75,0.163-0.835c0.26-0.134,0.941-0.063,1.176-0.088
		c0.592-0.045,0.966-0.011,1.421-0.168C39.841,34.343,40.159,34.055,40.489,34.018L40.489,34.018z"/>
	<path fill="#FFFFFF" d="M37.212,33.761c0,0,0.361,0.15,0.684,0.073c0.231-0.057,0.654-0.251,0.866-0.288
		c0.128-0.033,0.312,0.034,0.436,0c0.351-0.107,0.997-0.795,0.224-0.868c-0.281-0.025-1.118,0.289-1.381,0.363
		c-0.26,0.067-0.424,0.11-0.642,0.222c-0.058,0.036-0.358,0.281-0.321,0.239C37.077,33.501,36.88,33.667,37.212,33.761
		L37.212,33.761z"/>
	<path fill="#FFFFFF" d="M31.684,35.06c-0.227-0.03-0.227-0.411-0.797-0.288c-0.397,0.085-0.506,0.667-1.084,0.652l-0.287-0.139
		c-0.252-0.062-0.432,0.026-0.651-0.082c-1.019-0.477,0.79-2.918,1.372-2.885c0.03,0,0.331,0.107,0.368,0.142
		c0.181,0.158,0.181,0.841,0.353,1.086c0.129,0.171,0.334,0.158,0.511,0.288c0.184,0.14,0.533,0.62,0.574,0.873
		C32.042,34.707,32.137,35.122,31.684,35.06L31.684,35.06z"/>
	<path fill="#FFFFFF" d="M41.08,54.792C41.093,54.776,41.093,54.776,41.08,54.792L41.08,54.792z"/>
	<path fill="#FFFFFF" d="M49.189,33.317C49.189,33.309,49.189,33.307,49.189,33.317L49.189,33.317z"/>
	<rect x="41.076" y="54.793" fill="#FFFFFF" width="0.004" height="0"/>
	<path fill="#FFFFFF" d="M49.189,33.317c0,0.003,0,0.009,0,0.016c0,0,0.003,0,0.003,0.003
		C49.189,33.327,49.189,33.321,49.189,33.317L49.189,33.317z"/>
	<path fill="#FFFFFF" d="M40.07,32.629c0.005-0.011,0.011-0.025,0.018-0.036C40.067,32.632,40.063,32.639,40.07,32.629L40.07,32.629
		z"/>
	<path fill="#FFFFFF" d="M35.675,44.966c-0.004,0-0.011,0-0.015-0.004C35.675,44.971,35.677,44.971,35.675,44.966L35.675,44.966z"/>
	<path fill="#FFFFFF" d="M27.3,35.24c-0.392,0.219-1.253,0.56-1.434,0.943c-0.101,0.199-0.101,0.374-0.182,0.613
		c-0.01,0.026-0.117,0.068-0.148,0.142c-0.42,0-0.789-0.026-1.153,0.073c-0.285,0.08-0.694,0.382-1.01,0.435
		c-0.643,0.112-1.133-0.174-1.734-0.073c-0.269,0.046-0.439,0.326-0.66,0.436c-0.188,0.092-0.266,0.092-0.413,0.228l-0.132,0.153
		c-0.023,0.061-0.088,0.205-0.128,0.271c-0.131,0.199-0.185,0.396-0.216,0.611c-0.03,0.203-0.15,0.698-0.258,0.901
		c-0.051,0.099-0.324,0.322-0.362,0.413c-0.02,0.059-0.081,0.12,0,0.215c-0.093-0.104-0.076,0.099,0.445,0.125
		c0.574,0.015,1.818-0.367,1.818-0.367l0.6-0.325c0.116-0.087,0.58-0.441,0.683-0.563c0.436-0.538,1.602-2.511,2.507-1.996
		l0.163,0.119c0.219,0.365-0.056,1.401-0.219,1.64l-0.203,0.245c-0.163,0.054-0.274,0.473-0.3,0.667
		c-0.039,0.314,0.053,0.594,0.075,0.765c0.048,0.375,0.085,0.846-0.146,1.31c-0.05,0.087-0.18,0.25-0.146,0.5
		c0.043,0.287,0.444,0.487,0.503,0.726c0.034,0.118,0.139,0.138,0,0.361c-0.076,0.123-0.407,0.328-0.503,0.435
		c-0.131,0.132-0.018,0.341,0.07,0.422c0.249,0.226,0.456,0.255,0.648,0.514c0.278,0.354,0.262,0.659,0.871,0.72
		c0.479,0.047,1.154,0.072,0.868-0.577l-0.144-0.243c-0.171-0.429-0.469-0.804-0.509-1.271c-0.056-0.592,0.422-0.893,0.222-1.371
		c-0.161-0.366-0.882-0.328-0.942-0.802c-0.031-0.267,0.24-0.831,0.29-1.084c0.056-0.348-0.036-0.568,0.076-0.869
		c0.071-0.211,0.389-0.45,0.424-0.716c0.066-0.478-0.301-0.777-0.143-1.3c0.081-0.267,0.502-0.238,0.655-0.438
		c0.201-0.269,0.09-0.637,0.213-1.014c0.013-0.042,0.116-0.267,0.137-0.306c-0.012-0.018,0.083-0.484,0.083-0.484
		C27.505,35.13,27.323,35.25,27.3,35.24 M22.723,39.057c-0.402,0.09-0.439-0.773-1.413-0.437c-0.049,0.021-0.323,0.271-0.347,0.312
		c-0.113,0.255-0.052,0.913-0.181,0.974c0,0-0.377,0.093-0.303-0.383c0.117-0.76,0.262-0.903,0.647-1.221
		c0.05-0.045,0.195-0.152,0.27-0.168c0.459-0.103,1.306,0.072,1.456,0.305C22.982,38.631,22.707,39.06,22.723,39.057L22.723,39.057z
		"/>
	<path fill="#FFFFFF" d="M49.189,33.333c-0.066-0.352-1.028-0.328-1.414-0.8c-0.145-0.189-0.039-0.292,0-0.43
		c0.109-0.414,0.985-0.17,1.192-0.536c0.082-0.153,0.111-0.609,0.056-0.669c-0.55-0.674-1.709-0.354-2.529-0.678
		c-0.392-0.166-0.885-0.491-1.301-0.649c-0.519-0.198-0.922-0.228-1.443-0.435c-0.118-0.049-0.351-0.221-0.476-0.271
		c-0.578-0.231-1.038-0.278-1.616-0.526c-0.071-0.026-0.242-0.125-0.318-0.158c-0.23-0.097-0.303-0.114-0.552-0.201
		c-0.893-0.327-2.03-0.61-3.324-0.527c-0.568,0.028-1.22-0.075-2.095,0.172c-0.303,0.078-0.725,0.336-1.008,0.427
		c-0.201,0.062-0.375,0.095-0.553,0.174c-0.254,0.1-0.477,0.25-0.82,0.333c-0.995,0.221-2.318-0.023-3.327,0.144
		c-0.871,0.141-1.377,0.693-2.094,0.94c-0.22,0.074-0.31,0.05-0.526,0.128c-0.124,0.045-0.422,0.122-0.523,0.179
		c-0.298,0.153-0.495,0.202-0.833,0.341c-0.167,0.076-0.369,0.231-0.532,0.309c-0.244,0.122-0.257,0.154-0.458,0.3l-0.164,0.117
		c0,0-0.353,0.31-0.396,0.365c-0.14,0.146-0.274,0.351-0.396,0.501c-0.366,0.429-0.919,0.966-1.376,1.298
		c-0.165,0.122-0.282,0.093-0.429,0.22c-0.173,0.133-0.325,0.274-0.49,0.4c-0.377,0.27-0.757,0.45-1.173,0.679l-0.268,0.179
		c-0.354,0.233-0.339,0.325-0.707,0.558c-0.237,0.163-0.343,0.406-0.563,0.597c-0.146,0.11-0.311,0.465-0.408,0.615
		c-0.455,0.665-0.624,1.646-0.949,2.468c-0.095,0.233-0.884,1.376-1.082,1.446l-0.143,0.134c-0.115,0.096-0.115,0.125-0.217,0.224
		c-0.232,0.207-0.467,0.328-0.649,0.581c-0.144,0.198-0.231,0.426-0.367,0.647c-0.205,0.336-0.546,0.711-0.719,1.084
		c-0.069,0.135-0.12,0.273-0.169,0.405c-0.017,0.021-0.031,0.04-0.036,0.04c-0.088,0.114-0.241,0.58-0.241,0.58
		c-0.16,0.374-0.542,0.583-1.046,1.3c-0.59,0.042-2.622-0.474-4.004-1.129c0.311,0.348,1.862,1.39,3.677,1.59
		c-0.122,0.174-0.13,0.358-0.348,0.416c-0.726,0.176-1.99-0.222-3.687-0.813c0.1,0.234,1.594,1.112,3.8,1.247
		c-0.328,0.385-3.358,0.29-5.73-0.357c-0.09,0.25,2.965,0.928,4.642,0.904c-0.288,0.147-1.042,0.32-1.526,0.493
		c-0.766-0.083-1.831-0.219-2.039-0.294c0.047,0.153,0.803,0.357,1.429,0.501c-0.6,0.218-1.492,0.342-1.839,0.415
		c0.255,0.065,1.22-0.091,2.237-0.335c0.89,0.171,2.253,0.347,3.004,0.313c-0.188,0.095-0.895,0.549-1.452,0.874
		c-1.424,0.135-2.973,0.253-3.306,0.294c0.188,0.03,1.436,0.051,2.768,0.016c-0.813,0.475-1.679,0.974-2.098,1.164
		c0.617-0.156,1.72-0.581,2.849-1.183c1.118-0.042,2.166-0.132,2.603-0.291c-0.15,0.327-1.054,1.887-1.894,2.247
		c0.36-0.058,1.53-0.388,2.234-2.153c0.251,0.105,0.536,0.169,0.867,0.192c0.188,0.275,0.628,0.999,1.463,1.04
		c0.169,0.482,1.717,3.005,3.891,2.025c-0.627-0.342-1.007-0.696-1.318-1.701c0.966-0.062,3.52,1.341,4.288,4.363
		c-0.604-0.201-1.361-0.553-1.441-0.856c-0.167,0.701-0.275,1.603,1.272,3.164c0.029,0.335,0.025,0.736,0.097,1.108
		c0.256,0.269,0.551,0.47,0.823,0.7c0.021,0.44-0.042,1.04,1.112,1.38c0.393,0.325,1.652,0.672,1.837,0.886
		c0.375,0.121,0.934,0.146,1.339,0.121c0,0,0.55-0.091,0.694-0.301c0.272-0.014,0.644-0.022,2.317-1.807
		c0.353-0.422,0-2.727,0.083-3.285c0.167-0.406,0.238-0.781,0.461-1.28c0,0,0.229-0.494,0.655-0.695
		c0.028-0.012,0.053-0.012,0.09-0.02c0.964-0.222,2.217,0.684,2.813,0.936c0.217,0.09,0.33,0.037,0.503,0.147
		c0.083,0.044,0.206,0.239,0.294,0.293c0.21,0.114,0.416,0.079,0.653,0.206c0.345,0.194,1.047,1.21,1.658,1.09
		c0.188-0.041,0.338-0.477,0.502-0.582c0.286-0.174,0.688-0.155,0.94-0.358c0.292-0.226,0.172-0.484,0.215-0.796
		c0-0.014,0.135-0.163,0.15-0.221c0.141-0.016,0.457-0.003,0.651-0.063c0.025-0.013,0.107-0.105,0.14-0.145
		c0.128-0.129,0.037-0.266,0-0.375c-0.039-0.112-0.334-0.255-0.431-0.354c-0.215-0.213-0.587-0.529-0.726-0.792
		c-0.065-0.131,0.019-0.156-0.074-0.294c-0.095-0.152-0.347-0.308-0.425-0.502c-0.279-0.618-0.169-2-0.289-2.195
		c-0.116-0.184-0.258-0.164-0.37-0.338c-0.242-0.38,0.054-1.605,0.077-2.09c0.022-0.392-0.361-0.148-0.361-0.148
		c-0.317,0.778-0.283,1.125-0.359,2.238c-0.012,0.101-0.147,0.695-0.147,0.803c-0.005,0.388,0.224,1.047,0.069,1.514
		c-0.05,0.154-0.365,0.448-0.791,0.437c-0.163,0-0.972-0.214-1.157-0.285c-0.036-0.025-0.206-0.22-0.22-0.226
		c-0.401-0.314-0.485-0.019-0.503,0.14c-0.014,0.168,0.055,0.198,0.087,0.292c0.015,0.094,0.177,0.439,0.162,0.467
		c-0.008,0.036-0.147,0.414-0.897-0.027c-0.566-0.341-1.126-1.288-1.155-1.448c-0.081-0.36,0.032-0.638,0.103-0.761
		c0.284-0.256,0.618,0.097,0.9,0.25c0.072,0.041,0.245,0.161,0.331,0.181c0.167,0.029,0.433-0.029,0.47-0.029
		c1.097-0.066,2.231,0.331,2.428-0.407c0.12-0.462-0.333-0.708-0.413-0.901c-0.104-0.234-0.051-0.246-0.11-0.508
		c-0.009-0.02-0.085-0.185-0.1-0.205c-0.114-0.194-0.033-0.362-0.144-0.575c-0.116-0.24-0.44-0.385-0.575-0.582
		c-0.187-0.268-0.187-0.604-0.438-0.795c-0.37-0.306-1.85-0.746-2.023-1.092c-0.279-0.546,0.064-1.55-0.07-2.233
		c-0.076-0.403-0.205-0.622-0.452-0.87c-0.094-0.097-0.139-0.239-0.104-0.371c0.063-0.24,0.189-0.175,0.265-0.712
		c0.046-0.297-0.028-0.63,0-0.938c0.003-0.05,0.141-0.524,0.151-0.58c0.063-0.808-0.039-1.65-0.218-2.231
		c-0.086-0.285-0.349-0.532-0.437-0.804c-0.077-0.227,0.016-0.354-0.077-0.581c-0.07-0.196-0.323-0.335-0.426-0.5
		c-0.196-0.285-0.136-0.774-0.434-0.94c-0.222-0.122-0.299,0.048-0.288,0c-0.073,0.264-0.057,0.523,0.072,0.865
		c0.053,0.148,0.321,0.364,0.366,0.507c0.057,0.268-0.045,0.591,0,0.869l0.14,0.293c0.11,0.723-0.284,1.686-0.578,2.089
		c-0.206,0.266-0.826,0.611-0.863,1.013c-0.031,0.25,0.07,0.256,0.132,0.364c0.095,0.132,0.392,0.306,0.44,0.43
		c0.032,0.097,0.07,0.075,0.106,0.171l0.037,0.195c0.05,0.506-0.61,0.622-0.289,1.226c0.091,0.173,0.399,0.173,0.574,0.284
		c0.328,0.205,0.951,0.793,1.01,1.298c0.031,0.223,0,1.382-0.063,1.522c-0.151,0.324-0.964,0.444-0.868,1.085
		c0.1,0.693,1.933,0.497,2.448,0.864c0.245,0.167,0.295,0.54,0.369,0.873c0.043,0.179-0.139,0.239-0.217,0.281
		c-0.194,0.117-0.332,0.026-0.578,0.077c-0.599,0.12-1.55,0.388-1.8,0.869c-0.313,0.556,0.057,1.313-0.076,1.947
		c-0.132,0.574-0.563,1.273-0.875,1.74c-0.193,0.28-0.435,0.56-0.527,0.958c-0.212,0.854-0.063,1.859-0.125,2.857l-0.011,0.005
		c0,0,0.036,0.521-0.312,0.899c-0.398,0.438-1.774,1.721-2.75,1.721c-0.36-0.01-0.509-0.129-0.902-0.413
		c-0.25-0.023-0.823-0.158-1.152-0.504c-0.104-0.185-1.182-1.277-0.505-1.592c0.638-0.29,1.669,0.349,2.146,0.657
		c0.193,0,1.587,0.067,3.066-1.874c-0.067-1.014-0.153-2.314-0.262-2.551c-0.154-0.501-0.997-1.381-1.177-1.904
		c-0.111-0.433-0.311-1.269-0.182-1.853c-0.058-0.649-0.466-0.79-0.638-1.315c-0.046-0.131-0.101-0.239-0.13-0.275
		c-0.052-0.192-0.087-0.361-0.204-0.538c-0.256-0.39-0.507-0.476-0.741-0.86c-0.247-0.399-0.202-0.894-0.581-1.156
		c-0.208-0.14-0.486-0.152-0.722-0.29c-0.167-0.1-0.38-0.346-0.577-0.433c-0.229-0.099-0.29-0.132-0.522-0.231
		c-0.113-0.057-0.317-0.148-0.418-0.198c-0.101-0.061-0.203-0.009-0.287-0.077c-0.28-0.238-0.078-0.452-0.218-0.865
		c-0.012-0.047-0.123-0.05-0.147-0.142c-0.114-0.031-0.318-0.216-0.474-0.107c-0.216,0.16-0.277,0.115-0.412,0.443
		c-0.078,0.22-0.224,0.861-0.372,1.019c-0.13,0.153-0.292,0.369-0.497,0.513c-0.193,0.101-0.36,0.087-0.36,0.087l-0.541,0.079
		l-0.269,0.416c0,0-0.295-0.041-0.45-0.041c-0.045,0.101-0.401,0.375-0.513,0.47c-0.457,0.267-0.74,0.083-0.771-0.018
		c-0.021-0.091-0.167-0.27,0.142-0.452c1.061-0.298,2.36-1.717,2.467-2.021c-0.134,0.206-2.328,1.417-2.733,1.581
		c0.438-1.032,3.123-2.55,3.285-2.729c-0.686,0.105-2.974,1.486-3.373,2.102c-0.378,0.613-0.828,0.442-1.248,0.425
		c-0.411-0.013-0.377,0.423-0.396,0.696c-0.006,0.264-0.21,0.798-0.036,0.897c0.28,0.245,1.018-0.738,1.253-0.214
		c0.13,0.59-1.392,0.562-1.377,1.04c-0.074,0.25,1.403,0.335,1.673,0.604c-0.473,0.347-1.635,0.455-1.979,0.471
		c-0.216,0.021-0.41,0.009-0.521-0.008c-0.192-0.033-0.443-0.208-0.666-0.568c-0.42-0.764,0.29-1.29,0.301-1.486
		c0.018-0.206-0.079-0.095-0.093-0.415c-0.013-0.321,0.35-0.375,0.44-0.442c0.101-0.072-0.027-0.16-0.002-0.472
		c0.188-0.703,1.332-1.512,1.039-1.738c-0.266-0.142-0.823,0.474-1.037,0.75c-0.789,1.019-1.708,0.699-2.02,0.712
		c-0.695,0.038-0.571-0.723-0.086-0.671c0.56-0.116,0.518-0.89,0.918-0.809c0.127,0.567-0.501,0.644-0.208,0.768
		c0.4,0.158,0.439-0.362,0.567-0.583c0.117-0.224,0.682-0.703,0.619-0.828c-0.164-0.056-0.579,0.238-0.769,0.388
		c-0.458-1.144,0.696-2.013,0.753-2.353c0.379-0.596,2.494-1.36,2.531-2.266l0.059-0.05c0,0,0.039-0.025,0.105,0.082
		c0,0,0,0,0.002,0c0.015,0.055,0.025,0.115,0.04,0.174c0.005,0.074-0.003,0.142-0.003,0.142l0.01-0.088
		c0.017,0.141,0.01,0.265,0.017,0.234v0.138c0.019,0.084,0.126,0.123,0.144,0.128c0.044-0.005,0.161-0.041,0.27-0.168
		c0.017-0.016,0.141-0.135,0.141-0.164c0.202-0.149,0.238-0.169,0.381-0.374c0.362-0.529-0.338-1.299-0.143-2.015
		c0.133-0.476,0.576-1.036,0.576-1.036c0.121-0.27-0.07-0.268-0.07-0.268c-0.278-0.05-0.473,0.248-0.431,0.208
		c-0.356,0.338-0.465,0.5-0.723,0.948c0,0-0.219,0.198-0.282-0.073c-0.125-0.446,0.381-1.329,0.54-1.438
		c0.297-0.203,0.598-0.293,0.973-0.446c0.186-0.077,0.464-0.378,0.652-0.429c0.091-0.03,0.189-0.05,0.286,0
		c0,0,0.14,0.104,0.075,0.429c0,0-0.143,0.391-0.094,0.537c0.031,0.097,0.019,0.188,0.239,0.188c0.518,0.01,1.679-0.11,2.018-0.292
		c0.077-0.032,0.152-0.143,0.223-0.211c0.105-0.108,0.079-0.269,0-0.286l-0.223-0.073c0.17-0.025-0.978-0.034-0.794-0.066
		c-0.2,0.032,0.271-0.537,0.216-0.808c-0.022-0.126-0.249-0.18-0.288-0.284c-0.022-0.062-0.146-0.157,0-0.217l0.167-0.071
		c0.054-0.038,0.114-0.106,0.194-0.143c0.361-0.17,1.015-0.086,1.301,0c0.029,0.016,0.496,0.143,0.65,0.58
		c0.04,0.121,0.072,0.258,0.144,0.366c0.219,0.296,0.854,0.403,1.229,0.05c0.072-0.069,0.165-0.238,0.219-0.338
		c0.372-0.852-0.178-1.433-0.872-1.668c-0.279-0.098-0.731-0.128-1.083-0.218c-0.247-0.069-0.098-0.277-0.026-0.336l0.104-0.094
		c0.138-0.204,0.566-0.386,0.724-0.435c0.383-0.145,0.759-0.289,1.299-0.068c0.081,0.027,0.293,0.191,0.354,0.208
		c0.41,0.103,0.565,0.133,0.945-0.066c0.151-0.073,0.13-0.093,0.144-0.14c0.135-0.386-0.135-0.645-0.125-0.6
		c-0.081-0.521,1.405,0.123,1.637-0.208c0.219-0.296,0.078-0.864,0.364-1.08c0.032-0.02,0.205-0.14,0.216-0.145
		c0.277-0.057,0.518,0.056,0.736,0.145l0.237,0.112c0.469,0.191,0.875,0.296,1.128,0.683c0.159,0.25,0.13,0.615,0.288,0.87
		c0.064,0.109,0.219,0.178,0.298,0.289c0.066,0.08,0.194,0.133,0.28,0.182c0.135,0.083,0.185,0.117,0.358,0.17
		c0.127,0.053,0.313,0.246,0.437,0.297c0.44,0.178,0.969,0.154,1.443,0.142c0.284-0.011,0.453,0.152,0.721,0.073
		c0.137-0.045,0.1-0.292,0.012-0.396c-0.172-0.216-0.304-0.164-0.59-0.329c-0.113-0.069-0.252-0.29-0.361-0.356
		c-0.33-0.214-0.809-0.244-1.007-0.581c-0.027-0.052-0.065-0.149-0.069-0.208l-0.082-0.153c-0.402-0.813-0.527-1.292-0.145-1.444
		c0.24-0.092,0.763-0.041,1.019-0.146c0.059-0.031,0.169-0.194,0.215-0.219c0.572-0.272,1.65-0.588,2.243-0.286
		c0.177,0.083,0,0.544,0.066,0.721c0.035,0.079,0.169,0.213,0.319,0.258c1.24,0.334,2.479,0.278,3.393,0.707
		c0.541,0.257,0.956,0.659,1.444,1.08c0.42,0.375-0.076,0.798,0.354,0.924c-0.294,0.04-0.545,0.072-0.597-0.084
		c-0.014-0.036-0.101-0.17-0.145-0.212c-0.322-0.309-0.702-0.786-1.153-0.938c-0.23-0.084-0.332-0.011-0.582-0.076l-0.289-0.099
		c-0.313-0.086-0.337-0.056-0.643-0.12c-0.137-0.028-0.448-0.193-0.582-0.211c-0.615-0.089-0.958,0.156-1.52,0
		c-0.259-0.076-0.594-0.483-0.802-0.595c-0.26-0.146-0.499-0.199-0.791-0.291c-0.116-0.033-0.178-0.033-0.266,0.014
		c-0.159,0.093-0.105,0.236-0.023,0.353c0.049,0.062,0.087,0.173,0.145,0.206c0.204,0.149,0.613,0.149,0.724,0.363
		c0.319,0.631-0.15,0.852-0.217,1.038c-0.032,0.115-0.123,0.203,0,0.356c0.066,0.083,0.21,0.184,0.292,0.212
		c0.293,0.128,0.524,0.082,0.796,0.221c0.195,0.103,0.398,0.455,0.65,0.509c0.58,0.127,0.718-0.302,1.012-0.364
		c0.418-0.095,0.676,0.127,1.155,0c0.161-0.045,0.25-0.234,0.358-0.284c0.276-0.15,0.553-0.17,0.725-0.082
		c0,0,0.188,0.091-0.073,0.221c-0.151,0.085-0.275,0.085-0.43,0.162c-0.107,0.057-0.197,0.203-0.215,0.226
		c-0.051,0.103-0.088,0.255-0.081,0.266c0.044,0.08,0.108,0.125,0.146,0.146c0.505,0.174,1.02-0.151,1.448-0.218
		c0.321-0.052,1.217,0,1.473,0.198c0,0,0.241,0.048,0.087,0.481c-0.097,0.26-0.508,0.45-0.666,0.67
		c-0.089,0.125-0.189,0.365-0.283,0.484c-0.152,0.198-0.18,0.191-0.334,0.373l-0.105,0.152c-0.062,0.189-0.797,0.812-0.936,1.021
		c-0.083,0.124-0.124,0.253-0.21,0.389c-0.133,0.188-0.229,0.218-0.295,0.335c-0.213,0.303-0.63,0.922-0.97,1.079
		c-0.154,0.066-0.369-0.005-0.582-0.047c-0.147-0.041-0.305-0.309-0.429-0.365c-0.506-0.232-1.068-0.166-1.514-0.435
		c-0.224-0.134-0.428-0.523-0.588-0.724c-0.103-0.135-0.198-0.375-0.359-0.437c-0.256-0.091-0.886-0.008-1.009,0.215
		c-0.238,0.457,0.384,1.623,0.435,2.104c0.037,0.407-0.149,0.592,0,0.933c0.071,0.176,0.344,0.22,0.432,0.363
		c0.392,0.615,0.052,1.487,0.143,2.313c0.038,0.254,0.191,0.574,0.145,0.939c-0.063,0.579-0.802,1.073-0.502,1.952
		c0.009,0.036,0.149,0.139,0.16,0.149c0.115,0.056,0.297,0.032,0.417-0.004c0.242-0.086,0.475-0.564,0.728-0.72
		c0.022-0.032,0.107-0.07,0.153-0.07c0.025-0.051,0.093-0.055,0.134-0.074c0.105-0.082,0.147-0.083,0.213-0.216
		c0.099-0.235,0.066-0.466,0.145-0.8c0.074-0.275,0.33-0.768,0.363-1.083c0.087-0.886-0.554-2.612-0.093-2.9
		c0.175-0.11,0.349-0.318,0.653-0.365c0.134-0.033,0.568,0.103,0.761,0.097c-0.004,0.006-0.007,0.009-0.007,0.009
		c-0.233,0.552,0.633,1.996,0.563,2.796c-0.168,1.942-1.438,3.015-2.531,4.049c-0.127,0.128-0.021,0.266,0.075,0.36
		c0.215,0.21,0.741,0.118,1.015,0.075c0.396-0.082,0.575-0.261,0.868-0.362c0.106-0.042,0.236,0.026,0.358,0
		c0.298-0.082,0.552-0.483,0.722-0.728c0,0,0.352-0.38,0.428,0.122l0.006,0.028c0,0.471-0.082,0.983,0,1.441
		c0.087,0.543,1.074,2.171,1.591,2.247c1.205,0.174-0.027-1.343-0.077-1.448c-0.196-0.457-0.386-1.275-0.36-1.878
		c0.008-0.219,0.191-0.667,0.215-0.873c0.012-0.103-0.039-0.342,0-0.425c0.097-0.193,0.733-0.254,0.873-0.512
		c0.035-0.072-0.019-0.204,0-0.284c0.026-0.175,0.154-0.496,0.29-0.646c0.084-0.109,0.208-0.171,0.36,0
		c0.123,0.137,0.153,0.459,0.362,0.695l0.178,0.194c0.214,0.138,0.56-0.046,0.469-0.025c0.224-0.059,0.197-0.287,0.289-0.369
		c0.017-0.012,0.143-0.065,0.143-0.065c0.524-0.539-0.635-1.022-0.649-1.522c-0.012-0.553,0.123-1.195-0.069-1.805
		c-0.047-0.154-0.33-0.368-0.366-0.503c-0.074-0.349,0.105-0.719,0.146-0.94c0.08-0.46-0.075-1.173,0.075-1.374
		c0.086-0.112,0.229-0.195,0.506-0.148c0.182,0.036,0.305,0.333,0.43,0.435c0.476,0.382,1.024,0.593,1.811,0.501
		c0.098-0.001,0.178-0.148,0.195-0.19c0.052-0.145,0.041-0.33-0.051-0.457c-0.286-0.38-1.385-0.67-1.444-0.863
		c-0.043-0.141-0.218-0.331-0.026-0.422c-0.104,0.059,0.678-0.023,0.96-0.084c0.369-0.079,0.396-0.445,0.652-0.573
		c0.358-0.19,0.885-0.026,1.088-0.363c0.12-0.215,0.025-0.53,0.14-0.729c0.145-0.252,0.573-0.305,0.796-0.507
		C49.235,33.627,49.205,33.4,49.189,33.333 M20.145,50.23c-0.143-0.155-0.024-0.459,0.238-0.593c0.484-0.229,0.684,0.037,0.787,0.16
		c0.469,0.727,1.076,1.672,1.526,2.042C22.279,51.884,20.726,51.406,20.145,50.23 M24.12,57.538c-0.254,0-1.863-1.353-1.621-2.195
		c0.478,0.354,1.549,1.1,1.683,1.086C24.327,56.512,24.439,57.443,24.12,57.538 M25.989,57.543c-0.21-0.184-1.769-1.831-1.379-2.594
		c0.428,0.429,1.618,1.524,2.044,1.629C26.774,56.891,26.757,57.756,25.989,57.543 M26.157,51.251
		c0.271,0.411,0.646,0.651,0.628,1.532c-0.027,0.214,0.044,0.256,0.222,0.243c0.165-0.047,0.075-1.064,0.568-0.998
		c0.419,0.06,0.136,0.644,0.342,1.295c0.077,0.235,0.551,1.073,0.424,2.51c-0.013,0.37-0.718,0.853-1.119,0.571
		c-0.331-0.201-0.331-0.445-0.52-1.966c-0.08-0.894-1.174-1.204-1.636-1.611c-0.465-0.344-0.2-0.509-0.284-1.137
		c-0.268-0.896-1.316-1.317-0.966-1.912c0.109-0.15,0.215-0.292,0.548-0.167C24.383,50.057,25.446,50.404,26.157,51.251
		 M18.711,48.413c-0.029,0.017-0.031,0.021,0.01-0.003C18.721,48.41,18.714,48.413,18.711,48.413
		c0.107-0.042,0.575-0.265,0.697-0.31c0.494-0.174,0.755,0.091,1.209-0.164c0.108-0.067,0.229-0.237,0.327-0.32
		c0.085-0.077,0.241-0.065,0.343-0.139c0.253-0.173,0.721-0.71,1.045-0.766c0.186-0.037,0.186,0.014,0.28,0.022
		c0,0.018,0.139-0.028,0.103,0.252c-0.086,0.531,1.17-0.009,1.998,0.187c0.561,0.132,1.106,0.324,0.962,0.687
		c0.02-0.041-0.163,0.11-0.209,0.137c-0.386,0.28-0.687-0.027-0.882-0.056c-0.339-0.037-0.577,0.063-0.923,0.021
		c0-0.002-0.415-0.14-0.415-0.14c-0.264-0.011-0.641,0.125-0.841,0.14c-0.382,0.033-0.563-0.103-0.905-0.072
		c-0.166,0.026-0.434,0.24-0.556,0.283c-0.112,0.041-0.241,0.079-0.349,0.112c-0.076,0.02-0.263,0.122-0.351,0.163
		c-0.344,0.172-0.549,0.172-0.976,0.278L19.023,48.8C18.495,48.872,18.546,48.508,18.711,48.413 M17.423,50.481
		c0.569-0.135,0.737,0.013,1.009,0.658c0.202,0.383,0.626,0.89,0.787,1.133c-0.655,0.074-1.698-0.819-1.99-1.308
		C17.044,50.72,17.327,50.527,17.423,50.481 M10.184,47.768c0.748-0.209,1.409-0.428,1.688-0.585
		c0.099-0.008,0.195-0.008,0.295-0.016c0.043,0.201,0.119,0.402,0.238,0.603c0.027,0.043,0.053,0.081,0.077,0.115
		C12.03,47.893,11.115,47.84,10.184,47.768 M11.745,49.077c0.383-0.231,0.751-0.48,1.099-0.737c0.16,0.187,0.335,0.362,0.527,0.526
		C13.167,48.92,12.536,48.999,11.745,49.077L11.745,49.077z"/>
	<path fill="#FFFFFF" d="M18.711,48.413c0.003,0,0.01-0.003,0.01-0.003C18.68,48.434,18.682,48.429,18.711,48.413L18.711,48.413z"/>
</g>
</svg>
